<svg width="16" height="16" viewBox="0 0 16 16" fill="none" xmlns="http://www.w3.org/2000/svg">
<path d="M9.74603 1.88888C9.51449 1.88888 9.29243 1.79691 9.12871 1.63318C8.96499 1.46946 8.87301 1.24741 8.87301 1.01587C8.87301 0.78433 8.96499 0.562275 9.12871 0.398553C9.29243 0.234831 9.51449 0.142853 9.74603 0.142853H14.9841C15.2157 0.142853 15.4377 0.234831 15.6014 0.398553C15.7652 0.562275 15.8571 0.78433 15.8571 1.01587V6.25396C15.8571 6.4855 15.7652 6.70756 15.6014 6.87128C15.4377 7.035 15.2157 7.12698 14.9841 7.12698C14.7526 7.12698 14.5305 7.035 14.3668 6.87128C14.2031 6.70756 14.1111 6.4855 14.1111 6.25396V3.12333L5.99817 11.2363C5.83352 11.3953 5.61299 11.4833 5.38409 11.4813C5.15519 11.4793 4.93622 11.3875 4.77436 11.2256C4.6125 11.0638 4.52068 10.8448 4.51869 10.6159C4.5167 10.387 4.6047 10.1665 4.76373 10.0018L12.8767 1.88888H9.74603ZM0.142853 3.63492C0.142853 3.17184 0.326809 2.72773 0.654254 2.40029C0.981698 2.07284 1.42581 1.88888 1.88888 1.88888H6.25396C6.4855 1.88888 6.70756 1.98086 6.87128 2.14459C7.035 2.30831 7.12698 2.53036 7.12698 2.7619C7.12698 2.99344 7.035 3.21549 6.87128 3.37922C6.70756 3.54294 6.4855 3.63492 6.25396 3.63492H1.88888V14.1111H12.3651V9.74603C12.3651 9.51449 12.4571 9.29243 12.6208 9.12871C12.7845 8.96499 13.0066 8.87301 13.2381 8.87301C13.4696 8.87301 13.6917 8.96499 13.8554 9.12871C14.0191 9.29243 14.1111 9.51449 14.1111 9.74603V14.1111C14.1111 14.5742 13.9271 15.0183 13.5997 15.3457C13.2723 15.6732 12.8282 15.8571 12.3651 15.8571H1.88888C1.42581 15.8571 0.981698 15.6732 0.654254 15.3457C0.326809 15.0183 0.142853 14.5742 0.142853 14.1111V3.63492Z" fill="#F6F9FC"/>
</svg>
